<?xml version="1.0" encoding="UTF-8" standalone="no"?>
<svg
   xmlns:dc="http://purl.org/dc/elements/1.1/"
   xmlns:cc="http://creativecommons.org/ns#"
   xmlns:rdf="http://www.w3.org/1999/02/22-rdf-syntax-ns#"
   xmlns:svg="http://www.w3.org/2000/svg"
   xmlns="http://www.w3.org/2000/svg"
   xmlns:sodipodi="http://sodipodi.sourceforge.net/DTD/sodipodi-0.dtd"
   xmlns:inkscape="http://www.inkscape.org/namespaces/inkscape"
   width="175mm"
   height="105mm"
   viewBox="0 0 175 105"
   version="1.1"
   id="svg8"
   inkscape:version="1.0.1 (3bc2e813f5, 2020-09-07)"
   sodipodi:docname="event-logo.svg">
  <defs
     id="defs2" />
  <sodipodi:namedview
     id="base"
     pagecolor="#ffffff"
     bordercolor="#666666"
     borderopacity="1.0"
     inkscape:pageopacity="0.0"
     inkscape:pageshadow="2"
     inkscape:zoom="0.8202151"
     inkscape:cx="377.13113"
     inkscape:cy="559.64406"
     inkscape:document-units="mm"
     inkscape:current-layer="layer1"
     inkscape:document-rotation="0"
     showgrid="false"
     inkscape:window-width="1920"
     inkscape:window-height="1172"
     inkscape:window-x="0"
     inkscape:window-y="0"
     inkscape:window-maximized="1" />
  <metadata
     id="metadata5">
    <rdf:RDF>
      <cc:Work
         rdf:about="">
        <dc:format>image/svg+xml</dc:format>
        <dc:type
           rdf:resource="http://purl.org/dc/dcmitype/StillImage" />
        <dc:title></dc:title>
      </cc:Work>
    </rdf:RDF>
  </metadata>
  <g
     inkscape:label="Layer 1"
     inkscape:groupmode="layer"
     id="layer1">
    <path
       style="fill:#000000;stroke-width:0.352777"
       d="m 90.207438,103.53341 c -5.42076,-1.18538 -9.80666,-3.881777 -11.773744,-7.238347 -0.479186,-0.817673 -1.12606,-2.614996 -1.437486,-3.994046 -1.021147,-4.52178 0.09722,-8.576577 4.04917,-14.68076 3.492283,-5.394187 3.636386,-6.422234 1.657936,-11.827674 -1.12229,-3.066286 -0.534733,-6.492483 1.482194,-8.64301 1.223856,-1.30492 4.68232,-2.959383 6.748193,-3.2282 3.377207,-0.43945 3.028087,1.025277 3.500223,-14.68517 0.22943,-7.634282 0.493014,-15.406459 0.585744,-17.271509 0.20209,-4.0645 -0.158497,-5.315143 -1.830397,-6.34843 -1.133107,-0.7003 -1.214953,-0.863376 -1.002273,-1.997046 0.18922,-1.008634 0.13495,-1.197394 -0.29664,-1.031777 -0.676587,0.25963 -1.334497,-0.51618 -0.956454,-1.12786 0.179327,-0.29016 0.5723,-0.376833 1.03815,-0.22898 0.65546,0.208037 0.7496,0.09903 0.7496,-0.867967 0,-0.9462431 -0.102096,-1.0734731 -0.707296,-0.8813931 -0.47759,0.1515833 -0.779227,0.037033 -0.928787,-0.3527167 -0.32743,-0.8532733 0.411987,-1.4592967 1.091967,-0.8949633 0.47383,0.3932433 0.544116,0.2809233 0.544116,-0.8695367 0,-1.11666 -0.0795,-1.2551333 -0.513716,-0.89477 -0.652974,0.54192 -1.250174,0.1827933 -1.250174,-0.7517933 0,-0.6016134 0.153294,-0.6845067 0.913174,-0.49379 0.849633,0.2132466 0.898486,0.16068 0.702096,-0.7555033 -0.19736,-0.9207234 -0.07514,-1.0477267 1.881287,-1.9548367 1.150797,-0.5335767 2.328727,-0.97014 2.617617,-0.97014 0.288886,0 1.462016,0.4430167 2.606946,0.9844833 1.952186,0.9232367 2.065806,1.0438867 1.826346,1.9392767 -0.23194,0.86724 -0.18084,0.9360866 0.55733,0.75082 0.98079,-0.2461634 1.47076,0.3877233 0.86441,1.1183266 -0.30439,0.36677 -0.55136,0.4160534 -0.80648,0.1609334 -0.65357,-0.6535734 -0.93217,-0.3944567 -0.93217,0.8669933 0,1.1796 0.49346,1.6946233 0.78517,0.8194833 0.21235,-0.6370433 0.97872,0.0106 0.97872,0.82708 0,0.60027 -0.15388,0.68436 -0.90663,0.4954334 -0.82718,-0.2076134 -0.89673,-0.14142 -0.79375,0.7555031 0.0965,0.84015 0.25391,0.968294 1.08302,0.88151 0.7657,-0.08015 0.97014,0.04556 0.97014,0.59654 0,0.912387 -0.60372,1.263414 -1.25018,0.726904 -0.60602,-0.50295 -0.63421,-0.35004 -0.16366,0.88761 0.31473,0.827786 0.18844,1.077783 -1.25118,2.47694 l -1.601239,1.556223 0.22254,9.628667 c 0.47351,20.487532 0.740809,26.088065 1.260849,26.417392 0.26939,0.1706 0.98089,0.312617 1.58111,0.31559 1.3437,0.0066 4.74681,1.151613 6.32868,2.129263 0.64627,0.399417 1.66209,1.461537 2.25739,2.360267 0.95676,1.44445 1.08235,1.929167 1.08235,4.177407 0,1.85289 -0.23943,3.179446 -0.88195,4.88646 -0.48506,1.28871 -0.88194,2.795776 -0.88194,3.349033 0,1.632403 0.95947,3.884403 2.8288,6.639523 3.32927,4.906857 4.58207,8.211517 4.57572,12.069837 -0.0114,6.89028 -4.40657,11.79671 -12.51979,13.97599 -3.37624,0.90688 -10.972142,1.00864 -14.685052,0.19673 z m 2.337826,-11.502723 c 0,-2.865447 -0.08355,-3.351387 -0.576216,-3.351387 -0.71682,0 -1.00026,1.010193 -1.006467,3.587117 -0.0057,2.390293 0.22777,3.11566 1.003067,3.11566 0.49696,0 0.579616,-0.477914 0.579616,-3.35139 z m 2.034937,1.778383 c -0.0864,-1.395153 0.389963,-2.660327 1.001663,-2.660327 0.221184,0 0.32879,0.802024 0.272027,2.027464 -0.07836,1.69156 0.0079,2.047066 0.52037,2.145766 0.543153,0.104604 0.602133,-0.15913 0.509313,-2.277456 l -0.104976,-2.39575 -1.385644,-0.2867 c -0.998313,-0.206557 -1.465213,-0.16133 -1.670293,0.161793 -0.347507,0.547533 -0.39031,4.292987 -0.05292,4.630383 0.545954,0.54595 0.9872,-0.105976 0.910457,-1.345173 z m 5.697319,1.358873 c 0.30691,-0.11777 0.55802,-0.492633 0.55802,-0.833023 0,-0.4691 -0.2124,-0.57829 -0.877552,-0.451137 -1.031697,0.19722 -1.433094,-0.503013 -1.084507,-1.8919 0.187223,-0.745956 0.393833,-0.88799 1.09638,-0.75369 0.560619,0.10717 0.865679,0.0036 0.865679,-0.293936 0,-1.278664 -2.139189,-0.977337 -2.761739,0.389016 -0.564047,1.237944 -0.518567,2.330354 0.13591,3.26475 0.562423,0.802974 1.085093,0.947027 2.067809,0.56992 z m 2.96129,-0.584736 c 0.1404,-0.729044 -0.878,-1.220294 -1.41549,-0.682797 -0.5375,0.537497 -0.0463,1.555893 0.6828,1.415493 0.33791,-0.06507 0.66762,-0.394786 0.73269,-0.732696 z M 91.134154,84.257943 c 0,-1.914613 -0.11737,-2.47075 -0.53855,-2.551866 -0.433566,-0.08349 -0.536723,0.293816 -0.529166,1.93545 0.0073,1.581573 -0.109364,2.03916 -0.519784,2.03916 -0.410423,0 -0.52706,-0.457587 -0.519783,-2.03916 0.0075,-1.641034 -0.09576,-2.019187 -0.529167,-1.93685 -0.670816,0.12744 -0.96126,3.9597 -0.355423,4.689686 0.230313,0.27751 0.940413,0.442964 1.694187,0.39474 l 1.297686,-0.08302 z m 19.404906,1.989614 c 0.27803,-0.715904 -0.0491,-0.89618 -1.45456,-0.801527 -0.79156,0.05331 -1.16807,-0.0501 -1.02504,-0.281517 0.12433,-0.201173 0.60419,-0.36577 1.06636,-0.36577 1.0456,0 1.25226,-0.32681 1.35365,-2.140626 0.08,-1.430727 -0.22022,-2.079474 -0.64454,-1.392904 -0.12187,0.19719 -0.58966,0.35853 -1.03952,0.35853 -1.09599,0 -1.73315,0.843724 -1.51175,2.00189 0.0996,0.521187 0.009,1.223587 -0.20184,1.560884 -0.2813,0.450423 -0.26801,0.751816 0.05,1.135026 0.55344,0.66686 3.14132,0.610667 3.40721,-0.07399 z m -2.22803,-3.124507 c 0.0654,-0.33955 0.35267,-0.617363 0.6384,-0.617363 0.28573,0 0.573,0.277813 0.63839,0.617363 0.0834,0.433157 -0.10706,0.61736 -0.63839,0.61736 -0.53134,0 -0.72181,-0.184203 -0.6384,-0.61736 z m -23.361282,2.469443 c -0.105597,-1.601473 -0.0234,-1.798136 0.80094,-1.915743 0.434583,-0.062 0.842766,-0.388833 0.907083,-0.726297 0.09727,-0.510413 -0.06522,-0.57714 -0.966537,-0.396876 -0.59591,0.119183 -1.08104,0.07779 -1.07807,-0.09199 0.0119,-0.679653 0.57755,-1.13296 1.55604,-1.246987 0.56649,-0.06602 1.098094,-0.327323 1.18134,-0.58068 0.114657,-0.348953 -0.306463,-0.4345 -1.736683,-0.352776 l -1.88804,0.107873 -0.10193,3.086807 c -0.09706,2.939383 -0.06631,3.086806 0.643947,3.086806 0.594006,0 0.732853,-0.197536 0.68191,-0.97014 z m 8.200596,-0.08368 c -0.212583,-1.448413 0.183717,-2.826736 0.812754,-2.826736 0.39808,0 0.522443,0.461863 0.522443,1.940276 0,1.489507 0.122937,1.94028 0.529167,1.94028 0.409646,0 0.527946,-0.45817 0.523766,-2.028473 -0.0062,-2.34404 -0.356073,-3.117943 -1.25371,-2.773487 -0.36192,0.138887 -0.750753,0.0492 -0.924246,-0.213176 -0.585037,-0.884744 -1.34442,0.790516 -1.34442,2.965896 0,1.749294 0.09433,2.04924 0.644456,2.04924 0.514784,0 0.613337,-0.212046 0.48979,-1.05382 z m 6.804407,-0.36413 c 0.333099,-1.97156 -0.110983,-4.93205 -0.739813,-4.93205 -0.272834,0 -0.496064,0.3175 -0.496064,0.705554 0,0.46351 -0.235183,0.705556 -0.68555,0.705556 -1.418286,0 -2.29269,2.623464 -1.418703,4.256524 0.264647,0.4945 0.74174,0.682366 1.732883,0.682366 1.321814,0 1.375724,-0.04756 1.607247,-1.41795 z m -2.4118,0.12443 c -0.389763,-0.38976 -0.264607,-2.063726 0.188147,-2.51648 0.745933,-0.745936 0.987776,-0.46091 0.987776,1.164167 0,1.499747 -0.47837,2.04987 -1.175923,1.352313 z m 4.242399,-1.174563 c -0.0468,-1.702227 -0.2047,-2.468507 -0.50884,-2.469443 -0.31091,-0.001 -0.44097,0.726986 -0.44097,2.46808 0,1.916023 0.11404,2.469446 0.50883,2.469446 0.40125,0 0.49449,-0.521883 0.44098,-2.468083 z m 2.09483,1.37529 c -0.27356,-1.36779 0.0626,-2.787763 0.66003,-2.787763 0.65781,0 0.85321,0.768293 0.62607,2.461736 -0.17783,1.325814 -0.1261,1.47626 0.46871,1.363187 0.52393,-0.0996 0.69177,-0.48642 0.77564,-1.787617 0.12281,-1.90521 -0.41173,-3.176653 -1.27582,-3.034656 -0.32731,0.05379 -0.79354,-0.02667 -1.03607,-0.178804 -0.83991,-0.52683 -1.14653,0.170664 -1.14653,2.608087 0,2.02508 0.0992,2.448623 0.57326,2.448623 0.45283,0 0.52735,-0.229583 0.35471,-1.092793 z m -1.98631,-4.90443 c 0,-0.194027 -0.23812,-0.352777 -0.52916,-0.352777 -0.29104,0 -0.52917,0.15875 -0.52917,0.352777 0,0.194027 0.23813,0.352777 0.52917,0.352777 0.29104,0 0.52916,-0.15875 0.52916,-0.352777 z m -13.646226,-4.7625 c -0.11777,-1.26118 -0.106156,-2.293057 0.02583,-2.293057 0.131966,0 0.570953,0.754064 0.975523,1.675697 0.46406,1.05716 0.801893,1.480367 0.915233,1.146527 0.77132,-2.271917 1.19294,-2.964837 1.500867,-2.4666 0.176913,0.286253 0.259353,0.83928 0.183193,1.228946 -0.576296,2.94863 -0.566896,3.054847 0.26004,2.937357 0.71154,-0.101093 0.80033,-0.338167 0.89677,-2.394377 0.05887,-1.255193 0.01617,-2.644256 -0.09492,-3.086803 -0.269443,-1.073553 -1.365796,-1.03679 -2.240426,0.07513 l -0.69202,0.879756 -0.590604,-0.90137 c -0.39398,-0.601293 -0.847433,-0.86482 -1.362056,-0.791566 -0.717047,0.102063 -0.778647,0.327506 -0.873384,3.196613 -0.09531,2.886247 -0.05606,3.086807 0.604087,3.086807 0.65572,0 0.690763,-0.16336 0.491887,-2.293057 z m 8.75084,0.17639 c -0.0575,-1.067153 -0.268996,-2.138717 -0.469996,-2.38125 -0.43606,-0.526177 -2.262717,-0.588813 -2.572114,-0.0882 -0.375663,0.607844 0.180394,1.141404 0.72151,0.692317 0.501897,-0.416533 1.21877,-0.189 1.21877,0.38684 0,0.182577 -0.18594,0.331957 -0.413196,0.331957 -0.633834,0 -1.70347,1.097603 -1.70347,1.74801 0,0.949846 0.800293,1.465956 2.10098,1.354923 l 1.222063,-0.104323 z m -2.01753,0.921197 c -0.230003,-0.59938 0.0791,-1.273977 0.583744,-1.273977 0.4449,0 0.42566,1.31156 -0.02333,1.589043 -0.1954,0.12076 -0.44759,-0.02103 -0.56043,-0.315066 z m 4.3714,-1.36217 c 0.08576,-1.957757 0.0073,-2.38125 -0.44097,-2.38125 -0.42577,0 -0.545286,0.42528 -0.545286,1.940276 0,1.067154 -0.15875,1.94028 -0.352777,1.94028 -0.19403,0 -0.35278,0.249167 -0.35278,0.5537 0,0.37243 0.259863,0.516797 0.79375,0.440974 0.72122,-0.10243 0.803283,-0.330324 0.898063,-2.49398 z m 4.109016,1.773586 c 1.19584,-1.707303 0.26799,-4.154836 -1.57509,-4.154836 -1.18347,0 -1.75629,0.805416 -1.75629,2.469443 0,0.607597 0.16433,1.411783 0.36518,1.787083 0.51623,0.964574 2.26126,0.90475 2.9662,-0.10169 z m -2.23853,-1.06803 c -0.39514,-1.06133 0.0653,-2.204863 0.88783,-2.204863 0.79957,0 1.12223,1.706157 0.47105,2.490777 -0.59711,0.71948 -1.01749,0.631033 -1.35888,-0.285914 z m 4.55159,-0.11037 c 0,-1.832653 0.0525,-1.955153 0.79375,-1.852083 0.51942,0.07222 0.79375,-0.07251 0.79375,-0.418797 0,-0.374156 -0.43919,-0.55383 -1.49931,-0.61336 l -1.4993,-0.0842 v 2.23026 c 0,2.30328 0.13841,2.70063 0.94074,2.70063 0.33561,0 0.47037,-0.562264 0.47037,-1.962454 z m -6.430846,-4.100916 c -0.21804,-0.654127 -0.977486,-0.76262 -0.977486,-0.13964 0,0.30721 0.251353,0.558563 0.558563,0.558563 0.307213,0 0.495727,-0.188517 0.418923,-0.418923 z M 96.125061,68.48277 c -0.04795,-1.05687 0.04108,-1.155427 1.138577,-1.26036 1.18832,-0.113613 1.190146,-0.111417 0.954156,1.146527 -0.208526,1.111553 -0.151253,1.260363 0.485097,1.260363 0.640193,0 0.72154,-0.220727 0.72154,-1.957797 0,-2.76879 -1.296407,-5.037603 -2.593983,-4.539676 -2.00409,0.769043 -3.149324,6.497473 -1.298977,6.497473 0.50386,0 0.634183,-0.251727 0.59359,-1.14653 z m -0.05855,-2.39181 c -0.277143,-0.448433 1.093503,-1.886283 1.5369,-1.612247 0.755947,0.4672 0.457033,1.531547 -0.480457,1.71076 -0.489696,0.09361 -0.965096,0.04928 -1.056443,-0.09851 z M 14.581372,92.6161 C 11.540276,91.16001 9.5681924,87.92064 9.2248491,83.8174 8.6908624,77.43585 12.278992,72.098743 17.103286,72.098743 c 1.020036,0 2.258957,0.18423 2.753153,0.409407 0.857937,0.390897 0.898547,0.54188 0.898547,3.340757 v 2.931353 l -1.283953,-0.871317 c -1.569487,-1.06508 -2.905494,-1.108483 -4.143577,-0.134606 -1.420104,1.117053 -1.980804,2.514493 -1.980804,4.936776 0,2.31307 0.823647,4.21785 2.125004,4.914314 1.277196,0.683536 3.24076,0.40933 4.293887,-0.59963 l 0.989443,-0.947944 v 3.0522 c 0,3.488917 -0.153313,3.68644 -3.096907,3.989954 -1.195267,0.123246 -2.06406,-0.01907 -3.076707,-0.503907 z m 13.581947,0.254753 c -2.35631,-0.934656 -4.55608,-4.23597 -5.334816,-8.006243 -0.77523,-3.75329 0.709096,-8.869623 3.235353,-11.151943 2.939347,-2.65552 7.034343,-2.580087 10.033937,0.18484 1.933688,1.782413 3.00975,4.291906 3.260173,7.603073 0.368247,4.869047 -1.760963,9.62854 -4.95646,11.079347 -1.605723,0.729026 -4.762567,0.876246 -6.238187,0.290926 z m 4.56957,-5.064946 c 3.09941,-1.602767 3.59565,-7.095744 0.87892,-9.728904 -2.119326,-2.054133 -4.85192,-1.37019 -6.17586,1.54577 -1.267186,2.79096 -0.670726,5.997564 1.447084,7.779584 1.241153,1.044363 2.379846,1.16372 3.849856,0.40355 z m 13.729382,4.751833 c -3.546053,-1.873787 -5.652617,-7.108457 -4.854638,-12.063453 0.485001,-3.01159 2.221075,-6.16747 4.122825,-7.494584 1.34374,-0.937713 1.80504,-1.05775 4.064846,-1.05775 2.048187,0 2.80848,0.160307 3.869067,0.815787 2.733897,1.689643 4.48506,5.475473 4.48506,9.696247 0,4.62592 -1.75184,8.295303 -4.77891,10.00985 -1.81317,1.026986 -5.05894,1.07111 -6.90825,0.0939 z m 5.869993,-5.399053 c 2.862614,-2.862614 2.26615,-8.34171 -1.080996,-9.930034 -2.248157,-1.06682 -4.34971,0.219097 -5.395104,3.301204 -0.57405,1.692466 -0.4943,3.160023 0.262247,4.82578 1.41114,3.107023 4.122993,3.89391 6.213853,1.80305 z m 74.165516,5.200403 c -5.93229,-3.087943 -6.97771,-13.16858 -1.89298,-18.25331 1.65855,-1.658553 4.49514,-2.534923 7.18256,-2.21907 3.56955,0.41953 5.69265,2.084237 7.46915,5.856477 1.22629,2.603926 1.29948,7.084473 0.1563,9.56818 -1.00105,2.174913 -3.1518,4.505606 -4.88699,5.29588 -2.1528,0.980456 -5.88964,0.864943 -8.02804,-0.248157 z m 7.37733,-5.556963 c 2.78502,-3.038987 2.08666,-7.795137 -1.39906,-9.528264 -4.16128,-2.069013 -8.22628,3.646507 -5.8735,8.25833 1.56976,3.07698 5.05827,3.686144 7.27256,1.269934 z M 60.971654,82.505687 V 72.45152 h 1.928724 1.928723 l 0.09975,3.96875 0.09975,3.96875 2.293056,-3.96596 2.293054,-3.965957 2.410023,-0.0027 2.410023,-0.0027 -0.80015,1.322917 c -0.44008,0.727606 -1.723026,2.785656 -2.850993,4.57345 -1.127967,1.787796 -2.050847,3.417853 -2.050847,3.622346 0,0.2045 0.655884,1.44051 1.457524,2.74669 0.801636,1.30618 2.151013,3.50623 2.99861,4.888997 0.8476,1.382763 1.54109,2.613077 1.54109,2.734027 0,0.12095 -1.077334,0.219906 -2.394074,0.219906 h -2.394076 l -2.53781,-4.321526 -2.537807,-4.321527 -0.007,4.321527 -0.007,4.32159 h -1.940313 -1.940277 z m 82.197216,0 V 72.45152 h 4.93889 4.93889 v 2.116667 2.116666 h -2.64583 -2.64584 v 1.74777 1.747774 l 2.38125,0.10431 2.38125,0.104313 0.0364,1.76389 c 0.0536,2.592307 0.002,2.645833 -2.54363,2.645833 h -2.25531 v 3.880557 3.880553 h -2.29305 -2.29306 z m 12.7,0.01683 v -10.071 h 4.93889 4.93889 v 2.10183 2.101823 l -2.72871,0.103037 -2.72871,0.103033 -0.1209,1.675693 -0.1209,1.675697 h 2.49683 2.49683 v 2.276937 2.276936 l -2.38125,0.104314 -2.38125,0.104313 -0.0514,3.704163 -0.0514,3.704167 -2.15345,0.10503 -2.15345,0.105027 z M 74.835548,66.429653 c -1.471614,-0.442206 -1.65061,-0.79364 -1.160547,-2.278546 l 0.406287,-1.231067 0.90109,0.708797 c 1.06903,0.840896 1.626936,0.890676 2.203003,0.196563 0.645133,-0.777343 0.11621,-1.852573 -1.123987,-2.284907 -0.610063,-0.212673 -1.397323,-0.64742 -1.749473,-0.966106 -1.24178,-1.123797 -0.557643,-5.31185 0.963037,-5.89539 0.840653,-0.322587 2.45866,-0.26683 3.475493,0.119766 0.811823,0.308657 0.858463,0.43337 0.522497,1.397134 -0.3274,0.93917 -0.514384,1.049873 -1.662107,0.98401 -1.077543,-0.06184 -1.311017,0.05053 -1.400017,0.67381 -0.08338,0.583916 0.200134,0.87084 1.292267,1.307826 1.789667,0.716084 2.518563,1.775764 2.518563,3.661524 0,2.74275 -2.43213,4.434133 -5.186106,3.606586 z M 117.56475,66.1547 c -3.52292,-1.640683 -4.62803,-6.015527 -2.3845,-9.43959 0.78685,-1.200897 2.96657,-2.255253 4.66238,-2.255253 2.26373,0 2.51235,0.21518 2.51235,2.174413 0,1.733967 -0.005,1.74232 -0.78405,1.19698 -1.13623,-0.79585 -2.50509,-0.674853 -3.57416,0.31593 -1.2637,1.17116 -1.32353,3.584347 -0.11697,4.717853 0.9848,0.925167 2.9085,1.017187 3.83004,0.183204 0.61698,-0.55836 0.64514,-0.50538 0.64514,1.213903 0,2.019943 -0.0575,2.08886 -1.97392,2.364517 -0.95486,0.137346 -1.8189,-0.0074 -2.81631,-0.471957 z M 12.513512,65.836937 c -0.458373,-1.615867 -2.305196,-9.539214 -2.405156,-10.31875 -0.0978,-0.7627 0.03932,-0.896697 1.014203,-0.991054 1.03951,-0.100616 1.15489,-0.0045 1.48159,1.234724 0.194863,0.739106 0.548303,2.414566 0.785427,3.72324 0.237123,1.30867 0.522906,2.289763 0.635076,2.1802 0.112167,-0.109564 0.60882,-1.735924 1.103667,-3.61413 0.824757,-3.13039 0.975513,-3.42388 1.80935,-3.522424 0.859177,-0.101546 0.943087,0.03542 1.51286,2.469444 1.30324,5.567306 1.24865,5.535216 2.283297,1.342223 l 0.91403,-3.704167 1.170397,-0.03528 c 1.155846,-0.03486 1.167516,-0.01947 0.938563,1.23472 -0.12751,0.6985 -0.596713,2.619376 -1.042677,4.268613 -0.445963,1.649237 -1.010466,3.752673 -1.254456,4.674303 -0.412767,1.559167 -0.522407,1.675697 -1.57665,1.675697 -1.231274,0 -1.237467,-0.01193 -2.335767,-4.497917 -0.249394,-1.018646 -0.55692,-1.852083 -0.683394,-1.852083 -0.12647,0 -0.419306,0.846147 -0.650746,1.88033 -0.982774,4.391493 -1.023527,4.46967 -2.330117,4.46967 -0.835593,0 -1.246973,-0.18545 -1.369497,-0.617363 z m 12.554471,-5.291667 0.09672,-5.909027 1.14653,-0.110546 1.146527,-0.110547 v 2.31541 2.315407 h 1.747056 1.747054 l 0.10503,-2.204864 c 0.10438,-2.19132 0.111526,-2.20486 1.16336,-2.20486 h 1.058333 l 0.09683,5.932024 0.09683,5.932023 -1.155164,-0.11119 -1.15516,-0.11119 -0.104313,-2.38125 -0.104313,-2.38125 h -1.74777 -1.74777 v 2.469443 2.469447 h -1.243254 -1.24325 z m 10.583333,0 0.09672,-5.909027 h 2.469446 2.469444 l 0.109492,1.322917 0.109488,1.322917 h -1.608794 c -1.480865,0 -1.608797,0.07013 -1.608797,0.881943 0,0.789457 0.143781,0.881947 1.371071,0.881947 1.255624,0 1.384233,0.08968 1.527383,1.06503 0.188151,1.281933 -0.434541,1.905823 -1.667005,1.67022 -0.706651,-0.13508 -0.931232,-0.0027 -1.093574,0.643993 -0.299249,1.192303 0.08863,1.559643 1.646835,1.559643 1.353718,0 1.39029,0.0325 1.39029,1.234724 V 66.4543 H 38.208952 35.55459 Z m 6.702778,0 0.09672,-5.909027 1.112023,-0.10797 c 1.061177,-0.103036 1.214417,0.05672 3.35139,3.493857 l 2.239367,3.60183 0.176386,-3.493857 0.17639,-3.49386 h 1.058334 1.058333 v 5.820834 5.820833 l -1.111377,0.107927 c -1.057206,0.10266 -1.211966,-0.05578 -3.175,-3.250484 -1.134993,-1.847123 -2.182686,-3.36413 -2.328206,-3.37112 -0.14552,-0.007 -0.264584,1.495414 -0.264584,3.338677 v 3.35139 h -1.243253 -1.243253 z m 15.44256,-0.08819 v -5.997224 h 1.058334 1.058333 v 5.997224 5.997223 h -1.058333 -1.058334 z m 5.291667,1.41111 v -4.58611 h -0.903243 c -0.828024,0 -0.894124,-0.110164 -0.79375,-1.322917 l 0.109493,-1.322917 h 2.99861 2.99861 v 1.234724 c 0,1.084723 -0.117853,1.248283 -0.970137,1.346346 l -0.97014,0.111627 v 4.56268 4.56268 h -1.234723 -1.23472 z m 61.186289,4.130323 c -0.0962,-0.25068 -0.13091,-2.909743 -0.0771,-5.909026 l 0.0978,-5.453244 1.32292,-0.10949 1.32291,-0.10949 v 2.31435 2.314354 h 2.09984 2.09983 l 0.10503,-2.204864 0.10503,-2.20486 1.32291,-0.10949 1.32292,-0.10949 v 6.039814 6.039813 l -1.32292,-0.109487 -1.32291,-0.109493 -0.10432,-2.38125 -0.10431,-2.38125 h -2.10055 -2.10055 v 2.469443 2.469447 h -1.24579 c -0.69279,0 -1.32343,-0.202323 -1.42069,-0.455787 z m 12.19148,-5.562733 v -6.018517 l 1.32292,0.10949 1.32292,0.10949 0.0967,5.909027 0.0967,5.90903 h -1.41964 -1.41965 z m 5.09463,5.562733 c -0.0962,-0.25068 -0.13091,-2.909743 -0.0771,-5.909026 l 0.0978,-5.453244 1.31254,-0.10887 1.31253,-0.10887 0.0986,4.69498 0.0986,4.694984 1.6757,0.107523 c 1.65401,0.106133 1.67569,0.12325 1.67569,1.322917 V 66.4543 h -3.00968 c -2.13448,0 -3.06054,-0.132543 -3.18458,-0.455787 z m 7.76111,0 c -0.0962,-0.25068 -0.1309,-2.909743 -0.0771,-5.909026 l 0.0978,-5.453244 h 1.41111 1.41112 l 0.0984,4.674307 0.0984,4.674303 h 1.57727 c 1.56739,0 1.57725,0.0077 1.57725,1.234724 V 66.4543 h -3.00968 c -2.13448,0 -3.06054,-0.132543 -3.18458,-0.455787 z m 10.66278,0.2206 c -0.12935,-0.12935 -0.23518,-1.440453 -0.23518,-2.913556 0,-2.66028 -0.0131,-2.69796 -1.9417,-5.57857 l -1.9417,-2.900197 0.88336,-0.221713 c 1.50601,-0.377984 2.58189,0.129906 3.43322,1.620716 0.44085,0.771994 0.88638,1.40485 0.99006,1.406347 0.10369,0.0013 0.46644,-0.46776 0.80611,-1.04278 0.99489,-1.684213 1.53142,-2.04468 3.07511,-2.065983 1.74666,-0.0241 1.74343,-0.0075 -0.70685,3.62361 -1.76686,2.618366 -1.77539,2.64464 -1.77539,5.46916 V 66.4543 h -1.17593 c -0.64676,0 -1.28176,-0.105833 -1.41111,-0.235187 z M 68.400954,59.31055 c 0.01153,-0.242537 0.368724,-1.391573 0.79375,-2.553423 0.591037,-1.61564 0.938714,-2.113444 1.478337,-2.116667 1.048387,-0.0063 1.04287,0.332387 -0.04613,2.83211 -0.686706,1.576297 -1.186156,2.27895 -1.619873,2.27895 -0.34488,0 -0.617617,-0.198437 -0.606087,-0.44097 z M 23.969483,48.115453 C 14.528979,45.565397 8.7605391,39.07391 8.7605391,31.000134 c 0,-7.673443 5.1810599,-13.905066 14.1111139,-16.972426 2.79177,-0.95894 10.901976,-0.912314 13.93472,0.08011 l 2.116667,0.69265 0.09777,5.214677 0.09777,5.214673 -1.175527,-0.896616 c -2.447066,-1.866467 -4.417232,-2.488584 -7.839459,-2.47546 -3.598193,0.0138 -5.466287,0.648446 -7.711623,2.61988 -2.03554,1.787226 -2.826817,3.607436 -2.840507,6.53414 -0.0097,2.076436 0.144957,2.74822 0.948387,4.119169 2.012983,3.434896 5.175006,5.023556 9.95652,5.00235 3.04423,-0.0135 5.203633,-0.72484 7.486682,-2.466207 l 1.175527,-0.896617 -0.09777,5.2134 -0.09777,5.213397 -2.469444,0.667143 c -3.743507,1.011337 -9.258893,1.122257 -12.484113,0.25106 z M 45.802208,30.823748 V 13.890414 h 5.115276 5.11528 v 6.526387 6.52639 h 7.584724 7.58472 v -6.52639 -6.526387 h 5.11528 5.115276 v 16.933334 16.933329 h -5.10782 -5.10782 l -0.09565,-6.96736 -0.09565,-6.967359 -7.49653,-0.09521 -7.496527,-0.09521 v 7.062573 7.06257 h -5.11528 -5.115276 z m 63.499992,0 V 13.890414 h 7.58473 7.58472 v 13.405554 13.405555 h 9.17222 9.17222 V 44.2293 47.757077 H 126.05915 109.3022 Z m 41.27501,0 V 13.890414 h 7.76111 7.76111 v 16.933334 16.933329 h -7.76111 -7.76111 z"
       id="path901" />
  </g>
</svg>
