<?xml version="1.0" encoding="UTF-8" standalone="no"?>
<svg
   xmlns:dc="http://purl.org/dc/elements/1.1/"
   xmlns:cc="http://creativecommons.org/ns#"
   xmlns:rdf="http://www.w3.org/1999/02/22-rdf-syntax-ns#"
   xmlns:svg="http://www.w3.org/2000/svg"
   xmlns="http://www.w3.org/2000/svg"
   xmlns:sodipodi="http://sodipodi.sourceforge.net/DTD/sodipodi-0.dtd"
   xmlns:inkscape="http://www.inkscape.org/namespaces/inkscape"
   width="200mm"
   height="50mm"
   viewBox="0 0 200 50"
   version="1.1"
   id="svg8"
   inkscape:version="1.0.1 (3bc2e813f5, 2020-09-07)"
   sodipodi:docname="wooden-spoon.svg">
  <defs
     id="defs2" />
  <sodipodi:namedview
     id="base"
     pagecolor="#ffffff"
     bordercolor="#666666"
     borderopacity="1.0"
     inkscape:pageopacity="0.0"
     inkscape:pageshadow="2"
     inkscape:zoom="0.88914967"
     inkscape:cx="461.68103"
     inkscape:cy="252.71023"
     inkscape:document-units="mm"
     inkscape:current-layer="layer1"
     inkscape:document-rotation="0"
     showgrid="false"
     inkscape:window-width="1920"
     inkscape:window-height="1172"
     inkscape:window-x="0"
     inkscape:window-y="0"
     inkscape:window-maximized="1" />
  <metadata
     id="metadata5">
    <rdf:RDF>
      <cc:Work
         rdf:about="">
        <dc:format>image/svg+xml</dc:format>
        <dc:type
           rdf:resource="http://purl.org/dc/dcmitype/StillImage" />
        <dc:title></dc:title>
      </cc:Work>
    </rdf:RDF>
  </metadata>
  <g
     inkscape:label="Layer 1"
     inkscape:groupmode="layer"
     id="layer1">
    <path
       style="fill:#000000;stroke-width:0.389671"
       d="m 197.08658,25.163431 c -0.29977,0.604893 -0.96213,1.430516 -1.4719,1.834717 -0.91537,0.725796 -1.67637,0.739663 -61.34207,1.117744 -66.523576,0.421543 -61.945795,0.241295 -69.165432,2.723335 -1.838052,0.631901 -6.305346,2.737841 -9.927323,4.679866 -12.510623,6.707928 -16.121561,7.912803 -23.990452,8.004995 -5.801861,0.06797 -10.016172,-0.72282 -14.944462,-2.804252 C 7.7914737,37.149567 3.0554127,31.1959 3.0277977,24.104665 3.0001827,17.013431 7.6897622,11.031181 16.115224,7.4097288 21.027186,5.2984575 25.235239,4.4821242 31.037492,4.514909 c 7.806178,0.044107 11.804246,1.3079589 21.033772,6.64909 8.455927,4.893451 14.749663,7.102498 22.579145,7.92508 2.558486,0.268804 21.976895,0.337408 61.649471,0.217812 l 57.91455,-0.174588 1.14634,0.790086 c 1.10657,0.762675 2.31496,2.704274 2.28525,3.671872 -0.008,0.258152 -0.25967,0.964277 -0.55944,1.56917 z m -1.26111,-2.906876 c -0.32556,-0.680987 -0.96949,-1.414998 -1.43095,-1.631131 -0.58921,-0.275966 -18.10752,-0.343969 -58.83683,-0.228402 -34.98088,0.09927 -59.233025,0.02738 -61.110303,-0.181121 C 66.708283,19.356349 59.16069,16.688481 51.149964,11.980904 42.579571,6.9444297 38.257902,5.6241949 30.419673,5.6479635 8.3453865,5.7149014 -3.7584121,23.513471 10.044234,35.609935 c 5.766166,5.053398 15.265581,7.687197 24.147872,6.695221 5.584951,-0.623731 9.551292,-2.038051 17.465222,-6.227769 11.929788,-6.315754 15.768606,-7.749901 22.807765,-8.520769 2.23675,-0.24495 24.518605,-0.448472 61.314827,-0.560053 40.55351,-0.122974 58.05028,-0.293859 58.63582,-0.57268 0.45902,-0.21857 1.09005,-0.920555 1.40229,-1.559968 0.70357,-1.440783 0.70275,-1.152976 0.007,-2.607362 z M 50.273944,27.438879 c -1.004048,2.699184 -2.224749,4.384515 -4.685606,6.469078 C 33.669089,44.004581 10.955365,39.315508 8.1505102,26.179204 5.8252527,15.289053 20.807744,6.0688032 35.513177,9.3401728 c 4.340905,0.9656782 7.118666,2.2871792 10.124318,4.8165722 3.281868,2.761839 4.828747,5.603823 5.03605,9.252424 0.08436,1.484834 -0.08381,3.180773 -0.399601,4.02971 z M 48.215316,19.141337 C 46.180986,15.255541 41.922819,12.206669 36.471601,10.732769 32.597672,9.6853411 25.910766,9.6488257 22.557588,10.65679 c -5.532826,1.663167 -9.57345,4.403717 -11.826485,8.021307 -1.0908068,1.751452 -1.2003648,2.250042 -1.1880715,5.406812 0.012293,3.156769 0.1257319,3.654683 1.2301535,5.399479 5.115918,8.082275 18.702508,11.158184 29.136657,6.59634 8.132798,-3.55569 11.604876,-10.637151 8.305474,-16.939391 z"
       id="path970" />
  </g>
</svg>
